<svg width="16" height="16" viewBox="0 0 16 16" fill="none" xmlns="http://www.w3.org/2000/svg">
<path d="M1.72559 0.5C1.76973 0.500037 1.81224 0.517496 1.84375 0.548828C1.87534 0.580458 1.89353 0.62394 1.89355 0.668945V3.47266L2.74316 2.64258C3.73017 1.6782 4.9629 1.00415 6.30664 0.694336C7.65038 0.38452 9.05361 0.450742 10.3623 0.885742C11.6709 1.32076 12.8346 2.10812 13.7266 3.16113C14.5853 4.17487 15.1599 5.39731 15.3936 6.7041L15.416 6.85254C15.5651 7.84598 15.5146 8.85959 15.2666 9.83301C15.0186 10.8063 14.5787 11.7202 13.9727 12.5205C13.3665 13.3209 12.6062 13.9914 11.7373 14.4932C10.8682 14.9949 9.90752 15.3181 8.91211 15.4424C7.91686 15.5667 6.90672 15.4903 5.94141 15.2178C4.97594 14.9451 4.07395 14.4813 3.29004 13.8545C2.50629 13.2277 1.85607 12.4499 1.37695 11.5674C0.898367 10.6858 0.600433 9.71721 0.500977 8.71875C0.498743 8.69463 0.501127 8.66943 0.508789 8.64648C0.516451 8.62369 0.528834 8.6027 0.544922 8.58496C0.561059 8.56719 0.580723 8.5527 0.602539 8.54297C0.624434 8.53324 0.648939 8.52838 0.672852 8.52832H0.678711C0.717495 8.52771 0.755941 8.54149 0.785156 8.56738C0.799748 8.58035 0.811507 8.59613 0.820312 8.61328L0.836914 8.66895C0.980835 10.2963 1.67439 11.8261 2.80371 13.0059C3.93538 14.1879 5.43666 14.948 7.05859 15.1592C8.68068 15.3703 10.3266 15.0203 11.7227 14.167C13.1187 13.3137 14.1816 12.0084 14.7354 10.4678C15.289 8.92718 15.3003 7.24329 14.7676 5.69531C14.2348 4.14731 13.1899 2.82726 11.8057 1.95508C10.4213 1.08289 8.78007 0.710394 7.15527 0.899414C5.53078 1.08847 4.01963 1.82775 2.87207 2.99414L2.03516 3.84473H5.06641C5.11068 3.84474 5.15302 3.86305 5.18457 3.89453C5.21618 3.92618 5.23438 3.96961 5.23438 4.01465C5.23426 4.05954 5.21608 4.10224 5.18457 4.13379C5.15301 4.16532 5.11072 4.18358 5.06641 4.18359H2.39355C2.17214 4.18358 1.95958 4.09533 1.80273 3.93848C1.64582 3.78136 1.55762 3.56721 1.55762 3.34473V0.668945C1.55764 0.62394 1.57486 0.580458 1.60645 0.548828C1.63803 0.517246 1.68122 0.5 1.72559 0.5ZM8.02148 4.51465C8.06569 4.51477 8.10817 4.53199 8.13965 4.56348C8.17126 4.59513 8.18945 4.63856 8.18945 4.68359V7.95801L8.33496 8.10449L10.1377 9.90918V9.91016C10.1684 9.94199 10.1859 9.98479 10.1855 10.0293C10.185 10.0737 10.1669 10.1163 10.1357 10.1475C10.1045 10.1785 10.0623 10.1959 10.0186 10.1963C9.97542 10.1966 9.93388 10.1802 9.90234 10.1504L7.90234 8.14844C7.87073 8.11679 7.85255 8.07336 7.85254 8.02832V4.68359C7.85254 4.63856 7.87073 4.59513 7.90234 4.56348C7.93393 4.53186 7.9771 4.51465 8.02148 4.51465Z" fill="#7052D4" stroke="#7052D4"/>
</svg>
